<mxfile host="app.diagrams.net" agent="Mozilla/5.0 (Windows NT 10.0; Win64; x64) AppleWebKit/537.36 (KHTML, like Gecko) Chrome/132.0.0.0 Safari/537.36" version="26.0.10">
  <diagram id="eejhlNWVr3iC30mDxRaY" name="Page-2">
    <mxGraphModel dx="3050" dy="2270" grid="0" gridSize="10" guides="1" tooltips="1" connect="1" arrows="1" fold="1" page="1" pageScale="1" pageWidth="850" pageHeight="1100" math="0" shadow="0">
      <root>
        <mxCell id="0" />
        <mxCell id="1" parent="0" />
        <mxCell id="5H3apWxBRBd3fbQtqz06-1" value="Vendors" style="rounded=0;whiteSpace=wrap;html=1;fillColor=#e6d0de;strokeColor=#996185;gradientColor=#d5739d;" vertex="1" parent="1">
          <mxGeometry x="170" y="-930" width="120" height="60" as="geometry" />
        </mxCell>
        <mxCell id="sf9ilpLJGan23FoPSOjh-1" value="VendorID (Primary Key)" style="ellipse;whiteSpace=wrap;html=1;fillColor=#ffcd28;strokeColor=#d79b00;gradientColor=#ffa500;" vertex="1" parent="1">
          <mxGeometry x="30" y="-1000" width="110" height="60" as="geometry" />
        </mxCell>
        <mxCell id="R5h9RUGB7jM2tzgC_8bJ-1" value="Supplies " style="rhombus;whiteSpace=wrap;html=1;fillColor=#d5e8d4;strokeColor=#82b366;gradientColor=#97d077;" vertex="1" parent="1">
          <mxGeometry x="310" y="-920" width="70" height="40" as="geometry" />
        </mxCell>
        <mxCell id="R5h9RUGB7jM2tzgC_8bJ-2" value="CommissionRate" style="ellipse;whiteSpace=wrap;html=1;fillColor=#ffcd28;strokeColor=#d79b00;gradientColor=#ffa500;" vertex="1" parent="1">
          <mxGeometry x="-10" y="-870" width="110" height="60" as="geometry" />
        </mxCell>
        <mxCell id="R5h9RUGB7jM2tzgC_8bJ-3" value="&amp;nbsp;VendorName" style="ellipse;whiteSpace=wrap;html=1;fillColor=#ffcd28;strokeColor=#d79b00;gradientColor=#ffa500;" vertex="1" parent="1">
          <mxGeometry x="-20" y="-940" width="110" height="60" as="geometry" />
        </mxCell>
        <mxCell id="R5h9RUGB7jM2tzgC_8bJ-4" value="ContactInfo" style="ellipse;whiteSpace=wrap;html=1;fillColor=#ffcd28;strokeColor=#d79b00;gradientColor=#ffa500;" vertex="1" parent="1">
          <mxGeometry x="120" y="-840" width="110" height="60" as="geometry" />
        </mxCell>
        <mxCell id="R5h9RUGB7jM2tzgC_8bJ-5" value="Products" style="rounded=0;whiteSpace=wrap;html=1;fillColor=#e6d0de;strokeColor=#996185;gradientColor=#d5739d;" vertex="1" parent="1">
          <mxGeometry x="410" y="-930" width="120" height="60" as="geometry" />
        </mxCell>
        <mxCell id="R5h9RUGB7jM2tzgC_8bJ-6" value="ProductID (Primary Key)" style="ellipse;whiteSpace=wrap;html=1;fillColor=#ffcd28;strokeColor=#d79b00;gradientColor=#ffa500;" vertex="1" parent="1">
          <mxGeometry x="540" y="-1010" width="110" height="60" as="geometry" />
        </mxCell>
        <mxCell id="R5h9RUGB7jM2tzgC_8bJ-7" value="Price" style="ellipse;whiteSpace=wrap;html=1;fillColor=#ffcd28;strokeColor=#d79b00;gradientColor=#ffa500;" vertex="1" parent="1">
          <mxGeometry x="610" y="-880" width="110" height="60" as="geometry" />
        </mxCell>
        <mxCell id="R5h9RUGB7jM2tzgC_8bJ-8" value="ProductName" style="ellipse;whiteSpace=wrap;html=1;fillColor=#ffcd28;strokeColor=#d79b00;gradientColor=#ffa500;" vertex="1" parent="1">
          <mxGeometry x="600" y="-950" width="110" height="60" as="geometry" />
        </mxCell>
        <mxCell id="R5h9RUGB7jM2tzgC_8bJ-9" value="VendorID (Foreign Key)" style="ellipse;whiteSpace=wrap;html=1;fillColor=#ffcd28;strokeColor=#d79b00;gradientColor=#ffa500;" vertex="1" parent="1">
          <mxGeometry x="562.5" y="-810" width="110" height="60" as="geometry" />
        </mxCell>
        <mxCell id="R5h9RUGB7jM2tzgC_8bJ-10" value="Shoppers" style="rounded=0;whiteSpace=wrap;html=1;fillColor=#e6d0de;strokeColor=#996185;gradientColor=#d5739d;" vertex="1" parent="1">
          <mxGeometry x="20" y="-560" width="120" height="60" as="geometry" />
        </mxCell>
        <mxCell id="R5h9RUGB7jM2tzgC_8bJ-11" value="ShopperID (Primary Key)" style="ellipse;whiteSpace=wrap;html=1;fillColor=#ffcd28;strokeColor=#d79b00;gradientColor=#ffa500;" vertex="1" parent="1">
          <mxGeometry x="-130" y="-610" width="130" height="60" as="geometry" />
        </mxCell>
        <mxCell id="R5h9RUGB7jM2tzgC_8bJ-12" value="IsMember" style="ellipse;whiteSpace=wrap;html=1;fillColor=#ffcd28;strokeColor=#d79b00;gradientColor=#ffa500;" vertex="1" parent="1">
          <mxGeometry x="-190" y="-470" width="110" height="60" as="geometry" />
        </mxCell>
        <mxCell id="R5h9RUGB7jM2tzgC_8bJ-13" value="ShopperName" style="ellipse;whiteSpace=wrap;html=1;fillColor=#ffcd28;strokeColor=#d79b00;gradientColor=#ffa500;" vertex="1" parent="1">
          <mxGeometry x="-200" y="-550" width="110" height="60" as="geometry" />
        </mxCell>
        <mxCell id="R5h9RUGB7jM2tzgC_8bJ-14" value="Orders" style="rounded=0;whiteSpace=wrap;html=1;fillColor=#e6d0de;strokeColor=#996185;gradientColor=#d5739d;" vertex="1" parent="1">
          <mxGeometry x="450" y="-560" width="120" height="60" as="geometry" />
        </mxCell>
        <mxCell id="R5h9RUGB7jM2tzgC_8bJ-15" value="OrderID (Primary Key)" style="ellipse;whiteSpace=wrap;html=1;fillColor=#ffcd28;strokeColor=#d79b00;gradientColor=#ffa500;" vertex="1" parent="1">
          <mxGeometry x="670" y="-630" width="130" height="60" as="geometry" />
        </mxCell>
        <mxCell id="R5h9RUGB7jM2tzgC_8bJ-16" value="OrderStatus" style="ellipse;whiteSpace=wrap;html=1;fillColor=#ffcd28;strokeColor=#d79b00;gradientColor=#ffa500;" vertex="1" parent="1">
          <mxGeometry x="650" y="-450" width="130" height="60" as="geometry" />
        </mxCell>
        <mxCell id="R5h9RUGB7jM2tzgC_8bJ-17" value="ShopperID (Foreign Key)" style="ellipse;whiteSpace=wrap;html=1;fillColor=#ffcd28;strokeColor=#d79b00;gradientColor=#ffa500;" vertex="1" parent="1">
          <mxGeometry x="690" y="-550" width="130" height="60" as="geometry" />
        </mxCell>
        <mxCell id="R5h9RUGB7jM2tzgC_8bJ-18" value="OrderDate" style="ellipse;whiteSpace=wrap;html=1;fillColor=#ffcd28;strokeColor=#d79b00;gradientColor=#ffa500;" vertex="1" parent="1">
          <mxGeometry x="515" y="-380" width="130" height="60" as="geometry" />
        </mxCell>
        <mxCell id="R5h9RUGB7jM2tzgC_8bJ-19" value="OrderDetails" style="rounded=0;whiteSpace=wrap;html=1;fillColor=#e6d0de;strokeColor=#996185;gradientColor=#d5739d;" vertex="1" parent="1">
          <mxGeometry x="307.5" y="-700" width="120" height="60" as="geometry" />
        </mxCell>
        <mxCell id="R5h9RUGB7jM2tzgC_8bJ-20" value="OrderDetailID (Primary Key)" style="ellipse;whiteSpace=wrap;html=1;fillColor=#ffcd28;strokeColor=#d79b00;gradientColor=#ffa500;" vertex="1" parent="1">
          <mxGeometry x="180" y="-760" width="110" height="60" as="geometry" />
        </mxCell>
        <mxCell id="R5h9RUGB7jM2tzgC_8bJ-21" value="&amp;nbsp;OrderID (Foreign Key)" style="ellipse;whiteSpace=wrap;html=1;fillColor=#ffcd28;strokeColor=#d79b00;gradientColor=#ffa500;" vertex="1" parent="1">
          <mxGeometry x="90" y="-720" width="110" height="60" as="geometry" />
        </mxCell>
        <mxCell id="R5h9RUGB7jM2tzgC_8bJ-22" value="ProductID (Foreign Key)" style="ellipse;whiteSpace=wrap;html=1;fillColor=#ffcd28;strokeColor=#d79b00;gradientColor=#ffa500;" vertex="1" parent="1">
          <mxGeometry x="60" y="-650" width="110" height="60" as="geometry" />
        </mxCell>
        <mxCell id="R5h9RUGB7jM2tzgC_8bJ-23" value="Quantity" style="ellipse;whiteSpace=wrap;html=1;fillColor=#ffcd28;strokeColor=#d79b00;gradientColor=#ffa500;" vertex="1" parent="1">
          <mxGeometry x="160" y="-610" width="110" height="60" as="geometry" />
        </mxCell>
        <mxCell id="R5h9RUGB7jM2tzgC_8bJ-24" value="ShopperExperience" style="rounded=0;whiteSpace=wrap;html=1;fillColor=#e6d0de;strokeColor=#996185;gradientColor=#d5739d;" vertex="1" parent="1">
          <mxGeometry x="-15" y="-330" width="120" height="60" as="geometry" />
        </mxCell>
        <mxCell id="R5h9RUGB7jM2tzgC_8bJ-25" value="ExperienceID (Primary Key)" style="ellipse;whiteSpace=wrap;html=1;fillColor=#ffcd28;strokeColor=#d79b00;gradientColor=#ffa500;" vertex="1" parent="1">
          <mxGeometry x="150" y="-400" width="110" height="60" as="geometry" />
        </mxCell>
        <mxCell id="R5h9RUGB7jM2tzgC_8bJ-26" value="ShopperID (Foreign Key)" style="ellipse;whiteSpace=wrap;html=1;fillColor=#ffcd28;strokeColor=#d79b00;gradientColor=#ffa500;" vertex="1" parent="1">
          <mxGeometry x="215" y="-350" width="155" height="60" as="geometry" />
        </mxCell>
        <mxCell id="R5h9RUGB7jM2tzgC_8bJ-27" value="Review" style="ellipse;whiteSpace=wrap;html=1;fillColor=#ffcd28;strokeColor=#d79b00;gradientColor=#ffa500;" vertex="1" parent="1">
          <mxGeometry x="210" y="-210" width="155" height="60" as="geometry" />
        </mxCell>
        <mxCell id="R5h9RUGB7jM2tzgC_8bJ-28" value="ProductID (Foreign Key)" style="ellipse;whiteSpace=wrap;html=1;fillColor=#ffcd28;strokeColor=#d79b00;gradientColor=#ffa500;" vertex="1" parent="1">
          <mxGeometry x="245" y="-280" width="155" height="60" as="geometry" />
        </mxCell>
        <mxCell id="R5h9RUGB7jM2tzgC_8bJ-29" value="&amp;nbsp;TimeSpentSeconds" style="ellipse;whiteSpace=wrap;html=1;fillColor=#ffcd28;strokeColor=#d79b00;gradientColor=#ffa500;" vertex="1" parent="1">
          <mxGeometry x="60" y="-240" width="155" height="60" as="geometry" />
        </mxCell>
        <mxCell id="R5h9RUGB7jM2tzgC_8bJ-30" value="Costs" style="rounded=0;whiteSpace=wrap;html=1;fillColor=#e6d0de;strokeColor=#996185;gradientColor=#d5739d;" vertex="1" parent="1">
          <mxGeometry x="475" y="-270" width="120" height="60" as="geometry" />
        </mxCell>
        <mxCell id="R5h9RUGB7jM2tzgC_8bJ-31" value="CostID (Primary Key)" style="ellipse;whiteSpace=wrap;html=1;fillColor=#ffcd28;strokeColor=#d79b00;gradientColor=#ffa500;" vertex="1" parent="1">
          <mxGeometry x="630" y="-150" width="110" height="60" as="geometry" />
        </mxCell>
        <mxCell id="R5h9RUGB7jM2tzgC_8bJ-32" value="&amp;nbsp;DeliveryFailureCost" style="ellipse;whiteSpace=wrap;html=1;fillColor=#ffcd28;strokeColor=#d79b00;gradientColor=#ffa500;" vertex="1" parent="1">
          <mxGeometry x="730" y="-190" width="110" height="60" as="geometry" />
        </mxCell>
        <mxCell id="R5h9RUGB7jM2tzgC_8bJ-33" value="OrderID (Foreign Key)" style="ellipse;whiteSpace=wrap;html=1;fillColor=#ffcd28;strokeColor=#d79b00;gradientColor=#ffa500;" vertex="1" parent="1">
          <mxGeometry x="750" y="-260" width="110" height="60" as="geometry" />
        </mxCell>
        <mxCell id="R5h9RUGB7jM2tzgC_8bJ-34" value="ReturnFraudCost" style="ellipse;whiteSpace=wrap;html=1;fillColor=#ffcd28;strokeColor=#d79b00;gradientColor=#ffa500;" vertex="1" parent="1">
          <mxGeometry x="700" y="-320" width="110" height="60" as="geometry" />
        </mxCell>
        <mxCell id="R5h9RUGB7jM2tzgC_8bJ-35" value="Revenue" style="rounded=0;whiteSpace=wrap;html=1;fillColor=#e6d0de;strokeColor=#996185;gradientColor=#d5739d;" vertex="1" parent="1">
          <mxGeometry x="645" y="-730" width="120" height="60" as="geometry" />
        </mxCell>
        <mxCell id="R5h9RUGB7jM2tzgC_8bJ-36" value="RevenueID (Primary Key)" style="ellipse;whiteSpace=wrap;html=1;fillColor=#ffcd28;strokeColor=#d79b00;gradientColor=#ffa500;" vertex="1" parent="1">
          <mxGeometry x="830" y="-760" width="155" height="60" as="geometry" />
        </mxCell>
        <mxCell id="R5h9RUGB7jM2tzgC_8bJ-37" value="VendorID (Foreign Key)" style="ellipse;whiteSpace=wrap;html=1;fillColor=#ffcd28;strokeColor=#d79b00;gradientColor=#ffa500;" vertex="1" parent="1">
          <mxGeometry x="860" y="-620" width="155" height="60" as="geometry" />
        </mxCell>
        <mxCell id="R5h9RUGB7jM2tzgC_8bJ-38" value="OrderID (Foreign Key)" style="ellipse;whiteSpace=wrap;html=1;fillColor=#ffcd28;strokeColor=#d79b00;gradientColor=#ffa500;" vertex="1" parent="1">
          <mxGeometry x="880" y="-690" width="155" height="60" as="geometry" />
        </mxCell>
        <mxCell id="R5h9RUGB7jM2tzgC_8bJ-39" value="CommissionAmount" style="ellipse;whiteSpace=wrap;html=1;fillColor=#ffcd28;strokeColor=#d79b00;gradientColor=#ffa500;" vertex="1" parent="1">
          <mxGeometry x="800" y="-820" width="155" height="60" as="geometry" />
        </mxCell>
        <mxCell id="R5h9RUGB7jM2tzgC_8bJ-40" value="" style="endArrow=none;html=1;rounded=0;entryX=0.673;entryY=1;entryDx=0;entryDy=0;entryPerimeter=0;exitX=0;exitY=0.5;exitDx=0;exitDy=0;" edge="1" parent="1" source="5H3apWxBRBd3fbQtqz06-1" target="sf9ilpLJGan23FoPSOjh-1">
          <mxGeometry width="50" height="50" relative="1" as="geometry">
            <mxPoint x="400" y="-860" as="sourcePoint" />
            <mxPoint x="450" y="-910" as="targetPoint" />
          </mxGeometry>
        </mxCell>
        <mxCell id="R5h9RUGB7jM2tzgC_8bJ-41" value="" style="endArrow=none;html=1;rounded=0;entryX=0.973;entryY=0.25;entryDx=0;entryDy=0;entryPerimeter=0;exitX=0;exitY=0.5;exitDx=0;exitDy=0;" edge="1" parent="1" source="5H3apWxBRBd3fbQtqz06-1" target="R5h9RUGB7jM2tzgC_8bJ-2">
          <mxGeometry width="50" height="50" relative="1" as="geometry">
            <mxPoint x="280" y="-900" as="sourcePoint" />
            <mxPoint x="234" y="-930" as="targetPoint" />
          </mxGeometry>
        </mxCell>
        <mxCell id="R5h9RUGB7jM2tzgC_8bJ-42" value="" style="endArrow=none;html=1;rounded=0;entryX=0.373;entryY=-0.033;entryDx=0;entryDy=0;entryPerimeter=0;exitX=0;exitY=0.5;exitDx=0;exitDy=0;" edge="1" parent="1" source="5H3apWxBRBd3fbQtqz06-1" target="R5h9RUGB7jM2tzgC_8bJ-4">
          <mxGeometry width="50" height="50" relative="1" as="geometry">
            <mxPoint x="300" y="-880" as="sourcePoint" />
            <mxPoint x="244" y="-920" as="targetPoint" />
          </mxGeometry>
        </mxCell>
        <mxCell id="R5h9RUGB7jM2tzgC_8bJ-43" value="" style="endArrow=none;html=1;rounded=0;entryX=1;entryY=0.5;entryDx=0;entryDy=0;exitX=0;exitY=0.5;exitDx=0;exitDy=0;" edge="1" parent="1" source="5H3apWxBRBd3fbQtqz06-1" target="R5h9RUGB7jM2tzgC_8bJ-3">
          <mxGeometry width="50" height="50" relative="1" as="geometry">
            <mxPoint x="280" y="-900" as="sourcePoint" />
            <mxPoint x="197" y="-815" as="targetPoint" />
          </mxGeometry>
        </mxCell>
        <mxCell id="R5h9RUGB7jM2tzgC_8bJ-44" value="" style="endArrow=none;html=1;rounded=0;exitX=1;exitY=0.5;exitDx=0;exitDy=0;" edge="1" parent="1" source="R5h9RUGB7jM2tzgC_8bJ-5" target="R5h9RUGB7jM2tzgC_8bJ-6">
          <mxGeometry width="50" height="50" relative="1" as="geometry">
            <mxPoint x="554" y="-770" as="sourcePoint" />
            <mxPoint x="508" y="-810" as="targetPoint" />
          </mxGeometry>
        </mxCell>
        <mxCell id="R5h9RUGB7jM2tzgC_8bJ-45" value="" style="endArrow=none;html=1;rounded=0;exitX=1;exitY=0.5;exitDx=0;exitDy=0;" edge="1" parent="1" source="R5h9RUGB7jM2tzgC_8bJ-5" target="R5h9RUGB7jM2tzgC_8bJ-9">
          <mxGeometry width="50" height="50" relative="1" as="geometry">
            <mxPoint x="601" y="-880" as="sourcePoint" />
            <mxPoint x="660" y="-943" as="targetPoint" />
          </mxGeometry>
        </mxCell>
        <mxCell id="R5h9RUGB7jM2tzgC_8bJ-46" value="" style="endArrow=none;html=1;rounded=0;exitX=0;exitY=0.5;exitDx=0;exitDy=0;entryX=1;entryY=0.5;entryDx=0;entryDy=0;" edge="1" parent="1" source="R5h9RUGB7jM2tzgC_8bJ-8" target="R5h9RUGB7jM2tzgC_8bJ-5">
          <mxGeometry width="50" height="50" relative="1" as="geometry">
            <mxPoint x="601" y="-880" as="sourcePoint" />
            <mxPoint x="671" y="-729" as="targetPoint" />
          </mxGeometry>
        </mxCell>
        <mxCell id="R5h9RUGB7jM2tzgC_8bJ-47" value="" style="endArrow=none;html=1;rounded=0;exitX=0;exitY=0;exitDx=0;exitDy=0;entryX=1;entryY=0.5;entryDx=0;entryDy=0;" edge="1" parent="1" source="R5h9RUGB7jM2tzgC_8bJ-7" target="R5h9RUGB7jM2tzgC_8bJ-5">
          <mxGeometry width="50" height="50" relative="1" as="geometry">
            <mxPoint x="650" y="-890" as="sourcePoint" />
            <mxPoint x="601" y="-880" as="targetPoint" />
          </mxGeometry>
        </mxCell>
        <mxCell id="R5h9RUGB7jM2tzgC_8bJ-48" value="" style="endArrow=none;html=1;rounded=0;entryX=0;entryY=0.5;entryDx=0;entryDy=0;" edge="1" parent="1" source="R5h9RUGB7jM2tzgC_8bJ-11" target="R5h9RUGB7jM2tzgC_8bJ-10">
          <mxGeometry width="50" height="50" relative="1" as="geometry">
            <mxPoint x="500" y="-691" as="sourcePoint" />
            <mxPoint x="588" y="-540" as="targetPoint" />
          </mxGeometry>
        </mxCell>
        <mxCell id="R5h9RUGB7jM2tzgC_8bJ-49" value="" style="endArrow=none;html=1;rounded=0;entryX=0;entryY=0.5;entryDx=0;entryDy=0;exitX=1.009;exitY=0.35;exitDx=0;exitDy=0;exitPerimeter=0;" edge="1" parent="1" source="R5h9RUGB7jM2tzgC_8bJ-13" target="R5h9RUGB7jM2tzgC_8bJ-10">
          <mxGeometry width="50" height="50" relative="1" as="geometry">
            <mxPoint x="240" y="-558" as="sourcePoint" />
            <mxPoint x="320" y="-520" as="targetPoint" />
          </mxGeometry>
        </mxCell>
        <mxCell id="R5h9RUGB7jM2tzgC_8bJ-50" value="" style="endArrow=none;html=1;rounded=0;entryX=0;entryY=0.5;entryDx=0;entryDy=0;exitX=0.945;exitY=0.217;exitDx=0;exitDy=0;exitPerimeter=0;" edge="1" parent="1" source="R5h9RUGB7jM2tzgC_8bJ-12" target="R5h9RUGB7jM2tzgC_8bJ-10">
          <mxGeometry width="50" height="50" relative="1" as="geometry">
            <mxPoint x="231" y="-509" as="sourcePoint" />
            <mxPoint x="320" y="-520" as="targetPoint" />
          </mxGeometry>
        </mxCell>
        <mxCell id="R5h9RUGB7jM2tzgC_8bJ-51" value="" style="endArrow=none;html=1;rounded=0;entryX=1;entryY=0.5;entryDx=0;entryDy=0;exitX=0.208;exitY=0.95;exitDx=0;exitDy=0;exitPerimeter=0;" edge="1" parent="1" source="R5h9RUGB7jM2tzgC_8bJ-15" target="R5h9RUGB7jM2tzgC_8bJ-14">
          <mxGeometry width="50" height="50" relative="1" as="geometry">
            <mxPoint x="572.5" y="-578" as="sourcePoint" />
            <mxPoint x="652.5" y="-540" as="targetPoint" />
          </mxGeometry>
        </mxCell>
        <mxCell id="R5h9RUGB7jM2tzgC_8bJ-52" value="" style="endArrow=none;html=1;rounded=0;entryX=1;entryY=0.5;entryDx=0;entryDy=0;exitX=0.038;exitY=0.683;exitDx=0;exitDy=0;exitPerimeter=0;" edge="1" parent="1" source="R5h9RUGB7jM2tzgC_8bJ-17" target="R5h9RUGB7jM2tzgC_8bJ-14">
          <mxGeometry width="50" height="50" relative="1" as="geometry">
            <mxPoint x="707" y="-563" as="sourcePoint" />
            <mxPoint x="650" y="-470" as="targetPoint" />
          </mxGeometry>
        </mxCell>
        <mxCell id="R5h9RUGB7jM2tzgC_8bJ-53" value="" style="endArrow=none;html=1;rounded=0;entryX=1;entryY=0.5;entryDx=0;entryDy=0;" edge="1" parent="1" source="R5h9RUGB7jM2tzgC_8bJ-16" target="R5h9RUGB7jM2tzgC_8bJ-14">
          <mxGeometry width="50" height="50" relative="1" as="geometry">
            <mxPoint x="705" y="-499" as="sourcePoint" />
            <mxPoint x="650" y="-470" as="targetPoint" />
          </mxGeometry>
        </mxCell>
        <mxCell id="R5h9RUGB7jM2tzgC_8bJ-54" value="" style="endArrow=none;html=1;rounded=0;entryX=1;entryY=0.5;entryDx=0;entryDy=0;exitX=0.577;exitY=0;exitDx=0;exitDy=0;exitPerimeter=0;" edge="1" parent="1" source="R5h9RUGB7jM2tzgC_8bJ-18" target="R5h9RUGB7jM2tzgC_8bJ-14">
          <mxGeometry width="50" height="50" relative="1" as="geometry">
            <mxPoint x="634" y="-390" as="sourcePoint" />
            <mxPoint x="591" y="-424" as="targetPoint" />
          </mxGeometry>
        </mxCell>
        <mxCell id="R5h9RUGB7jM2tzgC_8bJ-55" value="" style="endArrow=none;html=1;rounded=0;entryX=0.973;entryY=0.7;entryDx=0;entryDy=0;exitX=0;exitY=0.5;exitDx=0;exitDy=0;entryPerimeter=0;" edge="1" parent="1" source="R5h9RUGB7jM2tzgC_8bJ-19" target="R5h9RUGB7jM2tzgC_8bJ-20">
          <mxGeometry width="50" height="50" relative="1" as="geometry">
            <mxPoint x="405" y="-210" as="sourcePoint" />
            <mxPoint x="380" y="-310" as="targetPoint" />
          </mxGeometry>
        </mxCell>
        <mxCell id="R5h9RUGB7jM2tzgC_8bJ-56" value="" style="endArrow=none;html=1;rounded=0;entryX=1;entryY=0.5;entryDx=0;entryDy=0;exitX=0;exitY=0.5;exitDx=0;exitDy=0;" edge="1" parent="1" source="R5h9RUGB7jM2tzgC_8bJ-19" target="R5h9RUGB7jM2tzgC_8bJ-21">
          <mxGeometry width="50" height="50" relative="1" as="geometry">
            <mxPoint x="235" y="-190" as="sourcePoint" />
            <mxPoint x="197" y="-228" as="targetPoint" />
          </mxGeometry>
        </mxCell>
        <mxCell id="R5h9RUGB7jM2tzgC_8bJ-57" value="" style="endArrow=none;html=1;rounded=0;entryX=0.755;entryY=0.117;entryDx=0;entryDy=0;exitX=0;exitY=0.5;exitDx=0;exitDy=0;entryPerimeter=0;" edge="1" parent="1" source="R5h9RUGB7jM2tzgC_8bJ-19" target="R5h9RUGB7jM2tzgC_8bJ-22">
          <mxGeometry width="50" height="50" relative="1" as="geometry">
            <mxPoint x="235" y="-190" as="sourcePoint" />
            <mxPoint x="180" y="-160" as="targetPoint" />
          </mxGeometry>
        </mxCell>
        <mxCell id="R5h9RUGB7jM2tzgC_8bJ-58" value="" style="endArrow=none;html=1;rounded=0;exitX=0;exitY=0.5;exitDx=0;exitDy=0;" edge="1" parent="1" source="R5h9RUGB7jM2tzgC_8bJ-19" target="R5h9RUGB7jM2tzgC_8bJ-23">
          <mxGeometry width="50" height="50" relative="1" as="geometry">
            <mxPoint x="235" y="-190" as="sourcePoint" />
            <mxPoint x="203" y="-113" as="targetPoint" />
          </mxGeometry>
        </mxCell>
        <mxCell id="R5h9RUGB7jM2tzgC_8bJ-59" value="" style="endArrow=none;html=1;rounded=0;exitX=0.064;exitY=0.65;exitDx=0;exitDy=0;exitPerimeter=0;entryX=1;entryY=0.5;entryDx=0;entryDy=0;" edge="1" parent="1" source="R5h9RUGB7jM2tzgC_8bJ-25" target="R5h9RUGB7jM2tzgC_8bJ-24">
          <mxGeometry width="50" height="50" relative="1" as="geometry">
            <mxPoint x="454" y="-220" as="sourcePoint" />
            <mxPoint x="450" y="-90" as="targetPoint" />
          </mxGeometry>
        </mxCell>
        <mxCell id="R5h9RUGB7jM2tzgC_8bJ-60" value="" style="endArrow=none;html=1;rounded=0;exitX=0;exitY=0;exitDx=0;exitDy=0;entryX=1;entryY=0.5;entryDx=0;entryDy=0;" edge="1" parent="1" source="R5h9RUGB7jM2tzgC_8bJ-28" target="R5h9RUGB7jM2tzgC_8bJ-24">
          <mxGeometry width="50" height="50" relative="1" as="geometry">
            <mxPoint x="737" y="-261" as="sourcePoint" />
            <mxPoint x="630" y="-180" as="targetPoint" />
          </mxGeometry>
        </mxCell>
        <mxCell id="R5h9RUGB7jM2tzgC_8bJ-61" value="" style="endArrow=none;html=1;rounded=0;exitX=0;exitY=0.5;exitDx=0;exitDy=0;entryX=1;entryY=0.5;entryDx=0;entryDy=0;" edge="1" parent="1" source="R5h9RUGB7jM2tzgC_8bJ-26" target="R5h9RUGB7jM2tzgC_8bJ-24">
          <mxGeometry width="50" height="50" relative="1" as="geometry">
            <mxPoint x="685" y="-140" as="sourcePoint" />
            <mxPoint x="645" y="-199" as="targetPoint" />
          </mxGeometry>
        </mxCell>
        <mxCell id="R5h9RUGB7jM2tzgC_8bJ-63" value="" style="endArrow=none;html=1;rounded=0;exitX=0.458;exitY=0.017;exitDx=0;exitDy=0;entryX=1;entryY=0.5;entryDx=0;entryDy=0;exitPerimeter=0;" edge="1" parent="1" source="R5h9RUGB7jM2tzgC_8bJ-27" target="R5h9RUGB7jM2tzgC_8bJ-24">
          <mxGeometry width="50" height="50" relative="1" as="geometry">
            <mxPoint x="670" y="-121" as="sourcePoint" />
            <mxPoint x="560" y="-190" as="targetPoint" />
          </mxGeometry>
        </mxCell>
        <mxCell id="R5h9RUGB7jM2tzgC_8bJ-64" value="" style="endArrow=none;html=1;rounded=0;entryX=1;entryY=0.5;entryDx=0;entryDy=0;" edge="1" parent="1" source="R5h9RUGB7jM2tzgC_8bJ-29" target="R5h9RUGB7jM2tzgC_8bJ-24">
          <mxGeometry width="50" height="50" relative="1" as="geometry">
            <mxPoint x="616" y="-39" as="sourcePoint" />
            <mxPoint x="560" y="-190" as="targetPoint" />
          </mxGeometry>
        </mxCell>
        <mxCell id="R5h9RUGB7jM2tzgC_8bJ-65" value="" style="endArrow=none;html=1;rounded=0;exitX=1;exitY=0.5;exitDx=0;exitDy=0;" edge="1" parent="1" source="R5h9RUGB7jM2tzgC_8bJ-30" target="R5h9RUGB7jM2tzgC_8bJ-31">
          <mxGeometry width="50" height="50" relative="1" as="geometry">
            <mxPoint x="486" y="111" as="sourcePoint" />
            <mxPoint x="351" y="10" as="targetPoint" />
          </mxGeometry>
        </mxCell>
        <mxCell id="R5h9RUGB7jM2tzgC_8bJ-66" value="" style="endArrow=none;html=1;rounded=0;exitX=1;exitY=0.5;exitDx=0;exitDy=0;entryX=0.239;entryY=0.083;entryDx=0;entryDy=0;entryPerimeter=0;" edge="1" parent="1" source="R5h9RUGB7jM2tzgC_8bJ-30" target="R5h9RUGB7jM2tzgC_8bJ-33">
          <mxGeometry width="50" height="50" relative="1" as="geometry">
            <mxPoint x="320" y="196" as="sourcePoint" />
            <mxPoint x="243" y="140" as="targetPoint" />
          </mxGeometry>
        </mxCell>
        <mxCell id="R5h9RUGB7jM2tzgC_8bJ-67" value="" style="endArrow=none;html=1;rounded=0;exitX=1;exitY=0.5;exitDx=0;exitDy=0;" edge="1" parent="1" source="R5h9RUGB7jM2tzgC_8bJ-30" target="R5h9RUGB7jM2tzgC_8bJ-32">
          <mxGeometry width="50" height="50" relative="1" as="geometry">
            <mxPoint x="315" y="140" as="sourcePoint" />
            <mxPoint x="240" y="150" as="targetPoint" />
          </mxGeometry>
        </mxCell>
        <mxCell id="R5h9RUGB7jM2tzgC_8bJ-68" value="" style="endArrow=none;html=1;rounded=0;exitX=1;exitY=0.5;exitDx=0;exitDy=0;entryX=0;entryY=0.5;entryDx=0;entryDy=0;" edge="1" parent="1" source="R5h9RUGB7jM2tzgC_8bJ-30" target="R5h9RUGB7jM2tzgC_8bJ-34">
          <mxGeometry width="50" height="50" relative="1" as="geometry">
            <mxPoint x="340" y="140" as="sourcePoint" />
            <mxPoint x="167" y="221" as="targetPoint" />
          </mxGeometry>
        </mxCell>
        <mxCell id="R5h9RUGB7jM2tzgC_8bJ-69" value="" style="endArrow=none;html=1;rounded=0;exitX=1.003;exitY=0.45;exitDx=0;exitDy=0;entryX=0.013;entryY=0.7;entryDx=0;entryDy=0;entryPerimeter=0;exitPerimeter=0;" edge="1" parent="1" source="R5h9RUGB7jM2tzgC_8bJ-35" target="R5h9RUGB7jM2tzgC_8bJ-36">
          <mxGeometry width="50" height="50" relative="1" as="geometry">
            <mxPoint x="620" y="90" as="sourcePoint" />
            <mxPoint x="522" y="32" as="targetPoint" />
          </mxGeometry>
        </mxCell>
        <mxCell id="R5h9RUGB7jM2tzgC_8bJ-70" value="" style="endArrow=none;html=1;rounded=0;exitX=1;exitY=0.5;exitDx=0;exitDy=0;" edge="1" parent="1" source="R5h9RUGB7jM2tzgC_8bJ-35" target="R5h9RUGB7jM2tzgC_8bJ-38">
          <mxGeometry width="50" height="50" relative="1" as="geometry">
            <mxPoint x="611" y="162" as="sourcePoint" />
            <mxPoint x="677" y="82" as="targetPoint" />
          </mxGeometry>
        </mxCell>
        <mxCell id="R5h9RUGB7jM2tzgC_8bJ-71" value="" style="endArrow=none;html=1;rounded=0;exitX=1;exitY=0.5;exitDx=0;exitDy=0;entryX=0.194;entryY=0.067;entryDx=0;entryDy=0;entryPerimeter=0;" edge="1" parent="1" source="R5h9RUGB7jM2tzgC_8bJ-35" target="R5h9RUGB7jM2tzgC_8bJ-37">
          <mxGeometry width="50" height="50" relative="1" as="geometry">
            <mxPoint x="610" y="170" as="sourcePoint" />
            <mxPoint x="691" y="159" as="targetPoint" />
          </mxGeometry>
        </mxCell>
        <mxCell id="R5h9RUGB7jM2tzgC_8bJ-72" value="" style="endArrow=none;html=1;rounded=0;exitX=1;exitY=0.5;exitDx=0;exitDy=0;entryX=0.036;entryY=0.66;entryDx=0;entryDy=0;entryPerimeter=0;" edge="1" parent="1" source="R5h9RUGB7jM2tzgC_8bJ-35" target="R5h9RUGB7jM2tzgC_8bJ-39">
          <mxGeometry width="50" height="50" relative="1" as="geometry">
            <mxPoint x="570" y="203" as="sourcePoint" />
            <mxPoint x="645" y="257" as="targetPoint" />
          </mxGeometry>
        </mxCell>
        <mxCell id="R5h9RUGB7jM2tzgC_8bJ-74" value="" style="endArrow=none;html=1;rounded=0;entryX=1;entryY=0.5;entryDx=0;entryDy=0;exitX=0.04;exitY=0.535;exitDx=0;exitDy=0;exitPerimeter=0;" edge="1" parent="1" source="R5h9RUGB7jM2tzgC_8bJ-1" target="5H3apWxBRBd3fbQtqz06-1">
          <mxGeometry width="50" height="50" relative="1" as="geometry">
            <mxPoint x="320" y="-840" as="sourcePoint" />
            <mxPoint x="370" y="-890" as="targetPoint" />
          </mxGeometry>
        </mxCell>
        <mxCell id="R5h9RUGB7jM2tzgC_8bJ-76" value="1" style="edgeLabel;html=1;align=center;verticalAlign=middle;resizable=0;points=[];" vertex="1" connectable="0" parent="R5h9RUGB7jM2tzgC_8bJ-74">
          <mxGeometry x="0.5773" relative="1" as="geometry">
            <mxPoint as="offset" />
          </mxGeometry>
        </mxCell>
        <mxCell id="R5h9RUGB7jM2tzgC_8bJ-75" value="" style="endArrow=none;html=1;rounded=0;entryX=-0.017;entryY=0.443;entryDx=0;entryDy=0;entryPerimeter=0;exitX=1;exitY=0.5;exitDx=0;exitDy=0;" edge="1" parent="1" source="R5h9RUGB7jM2tzgC_8bJ-1" target="R5h9RUGB7jM2tzgC_8bJ-5">
          <mxGeometry width="50" height="50" relative="1" as="geometry">
            <mxPoint x="320" y="-840" as="sourcePoint" />
            <mxPoint x="370" y="-890" as="targetPoint" />
          </mxGeometry>
        </mxCell>
        <mxCell id="R5h9RUGB7jM2tzgC_8bJ-77" value="M" style="edgeLabel;html=1;align=center;verticalAlign=middle;resizable=0;points=[];" vertex="1" connectable="0" parent="R5h9RUGB7jM2tzgC_8bJ-75">
          <mxGeometry x="0.4567" relative="1" as="geometry">
            <mxPoint as="offset" />
          </mxGeometry>
        </mxCell>
        <mxCell id="R5h9RUGB7jM2tzgC_8bJ-78" value="Places " style="rhombus;whiteSpace=wrap;html=1;fillColor=#d5e8d4;strokeColor=#82b366;gradientColor=#97d077;" vertex="1" parent="1">
          <mxGeometry x="330" y="-550" width="70" height="40" as="geometry" />
        </mxCell>
        <mxCell id="R5h9RUGB7jM2tzgC_8bJ-79" value="" style="endArrow=none;html=1;rounded=0;exitX=1;exitY=0.5;exitDx=0;exitDy=0;entryX=0;entryY=0.5;entryDx=0;entryDy=0;" edge="1" parent="1" source="R5h9RUGB7jM2tzgC_8bJ-10" target="R5h9RUGB7jM2tzgC_8bJ-78">
          <mxGeometry width="50" height="50" relative="1" as="geometry">
            <mxPoint x="280" y="-510" as="sourcePoint" />
            <mxPoint x="330" y="-560" as="targetPoint" />
          </mxGeometry>
        </mxCell>
        <mxCell id="R5h9RUGB7jM2tzgC_8bJ-81" value="1" style="edgeLabel;html=1;align=center;verticalAlign=middle;resizable=0;points=[];" vertex="1" connectable="0" parent="R5h9RUGB7jM2tzgC_8bJ-79">
          <mxGeometry x="-0.62" y="1" relative="1" as="geometry">
            <mxPoint as="offset" />
          </mxGeometry>
        </mxCell>
        <mxCell id="R5h9RUGB7jM2tzgC_8bJ-80" value="" style="endArrow=none;html=1;rounded=0;exitX=1;exitY=0.5;exitDx=0;exitDy=0;entryX=0;entryY=0.5;entryDx=0;entryDy=0;" edge="1" parent="1" source="R5h9RUGB7jM2tzgC_8bJ-78" target="R5h9RUGB7jM2tzgC_8bJ-14">
          <mxGeometry width="50" height="50" relative="1" as="geometry">
            <mxPoint x="380" y="-480" as="sourcePoint" />
            <mxPoint x="430" y="-480" as="targetPoint" />
          </mxGeometry>
        </mxCell>
        <mxCell id="R5h9RUGB7jM2tzgC_8bJ-82" value="M" style="edgeLabel;html=1;align=center;verticalAlign=middle;resizable=0;points=[];" vertex="1" connectable="0" parent="R5h9RUGB7jM2tzgC_8bJ-80">
          <mxGeometry x="0.58" relative="1" as="geometry">
            <mxPoint as="offset" />
          </mxGeometry>
        </mxCell>
        <mxCell id="R5h9RUGB7jM2tzgC_8bJ-83" value="Contains " style="rhombus;whiteSpace=wrap;html=1;fillColor=#d5e8d4;strokeColor=#82b366;gradientColor=#97d077;" vertex="1" parent="1">
          <mxGeometry x="475" y="-690" width="70" height="40" as="geometry" />
        </mxCell>
        <mxCell id="R5h9RUGB7jM2tzgC_8bJ-84" value="" style="endArrow=none;html=1;rounded=0;" edge="1" parent="1" source="R5h9RUGB7jM2tzgC_8bJ-83" target="R5h9RUGB7jM2tzgC_8bJ-14">
          <mxGeometry width="50" height="50" relative="1" as="geometry">
            <mxPoint x="320" y="-320" as="sourcePoint" />
            <mxPoint x="370" y="-370" as="targetPoint" />
          </mxGeometry>
        </mxCell>
        <mxCell id="R5h9RUGB7jM2tzgC_8bJ-86" value="1" style="edgeLabel;html=1;align=center;verticalAlign=middle;resizable=0;points=[];" vertex="1" connectable="0" parent="R5h9RUGB7jM2tzgC_8bJ-84">
          <mxGeometry x="0.804" y="1" relative="1" as="geometry">
            <mxPoint as="offset" />
          </mxGeometry>
        </mxCell>
        <mxCell id="R5h9RUGB7jM2tzgC_8bJ-85" value="" style="endArrow=none;html=1;rounded=0;entryX=1;entryY=0.5;entryDx=0;entryDy=0;exitX=0;exitY=0.5;exitDx=0;exitDy=0;" edge="1" parent="1" source="R5h9RUGB7jM2tzgC_8bJ-83" target="R5h9RUGB7jM2tzgC_8bJ-19">
          <mxGeometry width="50" height="50" relative="1" as="geometry">
            <mxPoint x="450" y="-380" as="sourcePoint" />
            <mxPoint x="425" y="-339" as="targetPoint" />
          </mxGeometry>
        </mxCell>
        <mxCell id="R5h9RUGB7jM2tzgC_8bJ-87" value="M" style="edgeLabel;html=1;align=center;verticalAlign=middle;resizable=0;points=[];" vertex="1" connectable="0" parent="R5h9RUGB7jM2tzgC_8bJ-85">
          <mxGeometry x="0.8015" relative="1" as="geometry">
            <mxPoint as="offset" />
          </mxGeometry>
        </mxCell>
        <mxCell id="R5h9RUGB7jM2tzgC_8bJ-88" value="Part of " style="rhombus;whiteSpace=wrap;html=1;fillColor=#d5e8d4;strokeColor=#82b366;gradientColor=#97d077;" vertex="1" parent="1">
          <mxGeometry x="470" y="-780" width="70" height="40" as="geometry" />
        </mxCell>
        <mxCell id="R5h9RUGB7jM2tzgC_8bJ-89" value="" style="endArrow=none;html=1;rounded=0;entryX=0.75;entryY=1;entryDx=0;entryDy=0;exitX=0.5;exitY=0;exitDx=0;exitDy=0;" edge="1" parent="1" source="R5h9RUGB7jM2tzgC_8bJ-88" target="R5h9RUGB7jM2tzgC_8bJ-5">
          <mxGeometry width="50" height="50" relative="1" as="geometry">
            <mxPoint x="280" y="-720" as="sourcePoint" />
            <mxPoint x="330" y="-770" as="targetPoint" />
          </mxGeometry>
        </mxCell>
        <mxCell id="R5h9RUGB7jM2tzgC_8bJ-93" value="1" style="edgeLabel;html=1;align=center;verticalAlign=middle;resizable=0;points=[];" vertex="1" connectable="0" parent="R5h9RUGB7jM2tzgC_8bJ-89">
          <mxGeometry x="0.6326" y="-2" relative="1" as="geometry">
            <mxPoint as="offset" />
          </mxGeometry>
        </mxCell>
        <mxCell id="R5h9RUGB7jM2tzgC_8bJ-90" value="" style="endArrow=none;html=1;rounded=0;entryX=0.5;entryY=1;entryDx=0;entryDy=0;" edge="1" parent="1" target="R5h9RUGB7jM2tzgC_8bJ-88">
          <mxGeometry width="50" height="50" relative="1" as="geometry">
            <mxPoint x="440" y="-740" as="sourcePoint" />
            <mxPoint x="330" y="-770" as="targetPoint" />
          </mxGeometry>
        </mxCell>
        <mxCell id="R5h9RUGB7jM2tzgC_8bJ-91" value="" style="endArrow=none;html=1;rounded=0;" edge="1" parent="1">
          <mxGeometry width="50" height="50" relative="1" as="geometry">
            <mxPoint x="360" y="-740" as="sourcePoint" />
            <mxPoint x="440" y="-740" as="targetPoint" />
          </mxGeometry>
        </mxCell>
        <mxCell id="R5h9RUGB7jM2tzgC_8bJ-92" value="" style="endArrow=none;html=1;rounded=0;exitX=0.444;exitY=-0.017;exitDx=0;exitDy=0;exitPerimeter=0;" edge="1" parent="1" source="R5h9RUGB7jM2tzgC_8bJ-19">
          <mxGeometry width="50" height="50" relative="1" as="geometry">
            <mxPoint x="300" y="-730" as="sourcePoint" />
            <mxPoint x="361" y="-740" as="targetPoint" />
          </mxGeometry>
        </mxCell>
        <mxCell id="R5h9RUGB7jM2tzgC_8bJ-94" value="M" style="edgeLabel;html=1;align=center;verticalAlign=middle;resizable=0;points=[];" vertex="1" connectable="0" parent="R5h9RUGB7jM2tzgC_8bJ-92">
          <mxGeometry x="-0.3853" relative="1" as="geometry">
            <mxPoint as="offset" />
          </mxGeometry>
        </mxCell>
        <mxCell id="R5h9RUGB7jM2tzgC_8bJ-95" value="Writes " style="rhombus;whiteSpace=wrap;html=1;fillColor=#d5e8d4;strokeColor=#82b366;gradientColor=#97d077;" vertex="1" parent="1">
          <mxGeometry x="20" y="-440" width="70" height="40" as="geometry" />
        </mxCell>
        <mxCell id="R5h9RUGB7jM2tzgC_8bJ-96" value="" style="endArrow=none;html=1;rounded=0;entryX=0.314;entryY=1.046;entryDx=0;entryDy=0;entryPerimeter=0;exitX=0.5;exitY=0;exitDx=0;exitDy=0;" edge="1" parent="1" source="R5h9RUGB7jM2tzgC_8bJ-95" target="R5h9RUGB7jM2tzgC_8bJ-10">
          <mxGeometry width="50" height="50" relative="1" as="geometry">
            <mxPoint x="310" y="-360" as="sourcePoint" />
            <mxPoint x="360" y="-410" as="targetPoint" />
          </mxGeometry>
        </mxCell>
        <mxCell id="R5h9RUGB7jM2tzgC_8bJ-98" value="1" style="edgeLabel;html=1;align=center;verticalAlign=middle;resizable=0;points=[];" vertex="1" connectable="0" parent="R5h9RUGB7jM2tzgC_8bJ-96">
          <mxGeometry x="0.4657" y="-1" relative="1" as="geometry">
            <mxPoint as="offset" />
          </mxGeometry>
        </mxCell>
        <mxCell id="R5h9RUGB7jM2tzgC_8bJ-97" value="" style="endArrow=none;html=1;rounded=0;entryX=0.568;entryY=0.011;entryDx=0;entryDy=0;entryPerimeter=0;exitX=0.5;exitY=1;exitDx=0;exitDy=0;" edge="1" parent="1" source="R5h9RUGB7jM2tzgC_8bJ-95" target="R5h9RUGB7jM2tzgC_8bJ-24">
          <mxGeometry width="50" height="50" relative="1" as="geometry">
            <mxPoint x="310" y="-360" as="sourcePoint" />
            <mxPoint x="360" y="-410" as="targetPoint" />
          </mxGeometry>
        </mxCell>
        <mxCell id="R5h9RUGB7jM2tzgC_8bJ-99" value="M" style="edgeLabel;html=1;align=center;verticalAlign=middle;resizable=0;points=[];" vertex="1" connectable="0" parent="R5h9RUGB7jM2tzgC_8bJ-97">
          <mxGeometry x="0.5549" relative="1" as="geometry">
            <mxPoint as="offset" />
          </mxGeometry>
        </mxCell>
        <mxCell id="R5h9RUGB7jM2tzgC_8bJ-100" value="" style="endArrow=none;html=1;rounded=0;entryX=0.25;entryY=1;entryDx=0;entryDy=0;" edge="1" parent="1" target="R5h9RUGB7jM2tzgC_8bJ-5">
          <mxGeometry width="50" height="50" relative="1" as="geometry">
            <mxPoint x="430" y="-460" as="sourcePoint" />
            <mxPoint x="280" y="-590" as="targetPoint" />
          </mxGeometry>
        </mxCell>
        <mxCell id="R5h9RUGB7jM2tzgC_8bJ-106" value="1" style="edgeLabel;html=1;align=center;verticalAlign=middle;resizable=0;points=[];" vertex="1" connectable="0" parent="R5h9RUGB7jM2tzgC_8bJ-100">
          <mxGeometry x="0.9429" y="-1" relative="1" as="geometry">
            <mxPoint y="-1" as="offset" />
          </mxGeometry>
        </mxCell>
        <mxCell id="R5h9RUGB7jM2tzgC_8bJ-102" value="" style="endArrow=none;html=1;rounded=0;" edge="1" parent="1">
          <mxGeometry width="50" height="50" relative="1" as="geometry">
            <mxPoint x="340" y="-460" as="sourcePoint" />
            <mxPoint x="430" y="-460" as="targetPoint" />
          </mxGeometry>
        </mxCell>
        <mxCell id="R5h9RUGB7jM2tzgC_8bJ-103" value="Reviewed " style="rhombus;whiteSpace=wrap;html=1;fillColor=#d5e8d4;strokeColor=#82b366;gradientColor=#97d077;" vertex="1" parent="1">
          <mxGeometry x="270" y="-480" width="70" height="40" as="geometry" />
        </mxCell>
        <mxCell id="R5h9RUGB7jM2tzgC_8bJ-104" value="" style="endArrow=none;html=1;rounded=0;entryX=0;entryY=0.5;entryDx=0;entryDy=0;" edge="1" parent="1" target="R5h9RUGB7jM2tzgC_8bJ-103">
          <mxGeometry width="50" height="50" relative="1" as="geometry">
            <mxPoint x="100" y="-460" as="sourcePoint" />
            <mxPoint x="230" y="-450" as="targetPoint" />
          </mxGeometry>
        </mxCell>
        <mxCell id="R5h9RUGB7jM2tzgC_8bJ-105" value="" style="endArrow=none;html=1;rounded=0;exitX=0.949;exitY=-0.008;exitDx=0;exitDy=0;exitPerimeter=0;" edge="1" parent="1" source="R5h9RUGB7jM2tzgC_8bJ-24">
          <mxGeometry width="50" height="50" relative="1" as="geometry">
            <mxPoint x="260" y="-320" as="sourcePoint" />
            <mxPoint x="100" y="-460" as="targetPoint" />
          </mxGeometry>
        </mxCell>
        <mxCell id="R5h9RUGB7jM2tzgC_8bJ-107" value="M" style="edgeLabel;html=1;align=center;verticalAlign=middle;resizable=0;points=[];" vertex="1" connectable="0" parent="R5h9RUGB7jM2tzgC_8bJ-105">
          <mxGeometry x="-0.7501" y="2" relative="1" as="geometry">
            <mxPoint as="offset" />
          </mxGeometry>
        </mxCell>
        <mxCell id="R5h9RUGB7jM2tzgC_8bJ-108" value="Incurred " style="rhombus;whiteSpace=wrap;html=1;fillColor=#d5e8d4;strokeColor=#82b366;gradientColor=#97d077;" vertex="1" parent="1">
          <mxGeometry x="452.5" y="-400" width="70" height="40" as="geometry" />
        </mxCell>
        <mxCell id="R5h9RUGB7jM2tzgC_8bJ-109" value="" style="endArrow=none;html=1;rounded=0;entryX=0.316;entryY=0.954;entryDx=0;entryDy=0;exitX=0.5;exitY=0;exitDx=0;exitDy=0;entryPerimeter=0;" edge="1" parent="1" source="R5h9RUGB7jM2tzgC_8bJ-108" target="R5h9RUGB7jM2tzgC_8bJ-14">
          <mxGeometry width="50" height="50" relative="1" as="geometry">
            <mxPoint x="560" y="-400" as="sourcePoint" />
            <mxPoint x="610" y="-450" as="targetPoint" />
          </mxGeometry>
        </mxCell>
        <mxCell id="R5h9RUGB7jM2tzgC_8bJ-111" value="1" style="edgeLabel;html=1;align=center;verticalAlign=middle;resizable=0;points=[];" vertex="1" connectable="0" parent="R5h9RUGB7jM2tzgC_8bJ-109">
          <mxGeometry x="0.6337" relative="1" as="geometry">
            <mxPoint y="-1" as="offset" />
          </mxGeometry>
        </mxCell>
        <mxCell id="R5h9RUGB7jM2tzgC_8bJ-110" value="" style="endArrow=none;html=1;rounded=0;entryX=0.5;entryY=1;entryDx=0;entryDy=0;exitX=0.114;exitY=-0.056;exitDx=0;exitDy=0;exitPerimeter=0;" edge="1" parent="1" source="R5h9RUGB7jM2tzgC_8bJ-30" target="R5h9RUGB7jM2tzgC_8bJ-108">
          <mxGeometry width="50" height="50" relative="1" as="geometry">
            <mxPoint x="492.5" y="-249" as="sourcePoint" />
            <mxPoint x="497.5" y="-351" as="targetPoint" />
          </mxGeometry>
        </mxCell>
        <mxCell id="R5h9RUGB7jM2tzgC_8bJ-112" value="1" style="edgeLabel;html=1;align=center;verticalAlign=middle;resizable=0;points=[];" vertex="1" connectable="0" parent="R5h9RUGB7jM2tzgC_8bJ-110">
          <mxGeometry x="-0.7775" relative="1" as="geometry">
            <mxPoint as="offset" />
          </mxGeometry>
        </mxCell>
        <mxCell id="R5h9RUGB7jM2tzgC_8bJ-113" value="Generates " style="rhombus;whiteSpace=wrap;html=1;fillColor=#d5e8d4;strokeColor=#82b366;gradientColor=#97d077;" vertex="1" parent="1">
          <mxGeometry x="522.5" y="-650" width="70" height="40" as="geometry" />
        </mxCell>
        <mxCell id="R5h9RUGB7jM2tzgC_8bJ-114" value="" style="endArrow=none;html=1;rounded=0;entryX=0.5;entryY=1;entryDx=0;entryDy=0;" edge="1" parent="1" target="R5h9RUGB7jM2tzgC_8bJ-113">
          <mxGeometry width="50" height="50" relative="1" as="geometry">
            <mxPoint x="558" y="-560" as="sourcePoint" />
            <mxPoint x="642.5" y="-600" as="targetPoint" />
          </mxGeometry>
        </mxCell>
        <mxCell id="R5h9RUGB7jM2tzgC_8bJ-118" value="1" style="edgeLabel;html=1;align=center;verticalAlign=middle;resizable=0;points=[];" vertex="1" connectable="0" parent="R5h9RUGB7jM2tzgC_8bJ-114">
          <mxGeometry x="-0.4945" y="-2" relative="1" as="geometry">
            <mxPoint as="offset" />
          </mxGeometry>
        </mxCell>
        <mxCell id="R5h9RUGB7jM2tzgC_8bJ-115" value="" style="endArrow=none;html=1;rounded=0;exitX=0.5;exitY=0;exitDx=0;exitDy=0;" edge="1" parent="1" source="R5h9RUGB7jM2tzgC_8bJ-113">
          <mxGeometry width="50" height="50" relative="1" as="geometry">
            <mxPoint x="440" y="-570" as="sourcePoint" />
            <mxPoint x="560" y="-700" as="targetPoint" />
          </mxGeometry>
        </mxCell>
        <mxCell id="R5h9RUGB7jM2tzgC_8bJ-116" value="" style="endArrow=none;html=1;rounded=0;entryX=0.002;entryY=0.315;entryDx=0;entryDy=0;entryPerimeter=0;" edge="1" parent="1" target="R5h9RUGB7jM2tzgC_8bJ-35">
          <mxGeometry width="50" height="50" relative="1" as="geometry">
            <mxPoint x="560" y="-700" as="sourcePoint" />
            <mxPoint x="530" y="-690" as="targetPoint" />
          </mxGeometry>
        </mxCell>
        <mxCell id="R5h9RUGB7jM2tzgC_8bJ-117" value="1" style="edgeLabel;html=1;align=center;verticalAlign=middle;resizable=0;points=[];" vertex="1" connectable="0" parent="R5h9RUGB7jM2tzgC_8bJ-116">
          <mxGeometry x="0.7835" y="-1" relative="1" as="geometry">
            <mxPoint as="offset" />
          </mxGeometry>
        </mxCell>
        <mxCell id="R5h9RUGB7jM2tzgC_8bJ-119" value="" style="endArrow=none;html=1;rounded=0;entryX=0.5;entryY=0;entryDx=0;entryDy=0;" edge="1" parent="1" target="5H3apWxBRBd3fbQtqz06-1">
          <mxGeometry width="50" height="50" relative="1" as="geometry">
            <mxPoint x="230" y="-1040" as="sourcePoint" />
            <mxPoint x="620" y="-760" as="targetPoint" />
          </mxGeometry>
        </mxCell>
        <mxCell id="R5h9RUGB7jM2tzgC_8bJ-124" value="1" style="edgeLabel;html=1;align=center;verticalAlign=middle;resizable=0;points=[];" vertex="1" connectable="0" parent="R5h9RUGB7jM2tzgC_8bJ-119">
          <mxGeometry x="0.5385" relative="1" as="geometry">
            <mxPoint as="offset" />
          </mxGeometry>
        </mxCell>
        <mxCell id="R5h9RUGB7jM2tzgC_8bJ-120" value="" style="endArrow=none;html=1;rounded=0;" edge="1" parent="1">
          <mxGeometry width="50" height="50" relative="1" as="geometry">
            <mxPoint x="230" y="-1040" as="sourcePoint" />
            <mxPoint x="730" y="-1040" as="targetPoint" />
          </mxGeometry>
        </mxCell>
        <mxCell id="R5h9RUGB7jM2tzgC_8bJ-121" value="Earns " style="rhombus;whiteSpace=wrap;html=1;fillColor=#d5e8d4;strokeColor=#82b366;gradientColor=#97d077;" vertex="1" parent="1">
          <mxGeometry x="700" y="-910" width="70" height="40" as="geometry" />
        </mxCell>
        <mxCell id="R5h9RUGB7jM2tzgC_8bJ-122" value="" style="endArrow=none;html=1;rounded=0;entryX=0.5;entryY=1;entryDx=0;entryDy=0;exitX=0.75;exitY=0;exitDx=0;exitDy=0;" edge="1" parent="1" source="R5h9RUGB7jM2tzgC_8bJ-35" target="R5h9RUGB7jM2tzgC_8bJ-121">
          <mxGeometry width="50" height="50" relative="1" as="geometry">
            <mxPoint x="570" y="-710" as="sourcePoint" />
            <mxPoint x="620" y="-760" as="targetPoint" />
          </mxGeometry>
        </mxCell>
        <mxCell id="R5h9RUGB7jM2tzgC_8bJ-123" value="" style="endArrow=none;html=1;rounded=0;entryX=0.5;entryY=0;entryDx=0;entryDy=0;" edge="1" parent="1" target="R5h9RUGB7jM2tzgC_8bJ-121">
          <mxGeometry width="50" height="50" relative="1" as="geometry">
            <mxPoint x="730" y="-1040" as="sourcePoint" />
            <mxPoint x="620" y="-760" as="targetPoint" />
          </mxGeometry>
        </mxCell>
        <mxCell id="R5h9RUGB7jM2tzgC_8bJ-125" value="M" style="edgeLabel;html=1;align=center;verticalAlign=middle;resizable=0;points=[];" vertex="1" connectable="0" parent="R5h9RUGB7jM2tzgC_8bJ-123">
          <mxGeometry x="0.6797" y="-1" relative="1" as="geometry">
            <mxPoint as="offset" />
          </mxGeometry>
        </mxCell>
      </root>
    </mxGraphModel>
  </diagram>
</mxfile>
